<svg xmlns="http://www.w3.org/2000/svg" width="1200" height="800" viewBox="-11.284935 -5.66995 97.80277 34.0197"><path d="M60.653 12.474c-.1296-.324-.259-.4212-.4537-.4212-.1294 0-.2265.0323-.4535.1294-.4212.1947-.972.3567-1.4904.3567-1.0366 0-1.6848-.3239-1.6848-1.4581V5.1514h3.1104c.5183 0 .713-.1942.713-.7127V3.402c0-.5186-.1947-.7128-.713-.7128h-3.1104V.7128c0-.5186-.1942-.7128-.7128-.7128h-1.296c-.5183 0-.7127.1942-.7127.7128v10.3031c0 2.9485 1.782 4.05 4.2119 4.05.9072 0 2.009-.2916 2.7863-.6802.2593-.1297.3566-.2593.3566-.4213 0-.1619-.0325-.227-.0974-.4212zM13.3814 1.6523c-.1942-.1944-.3241-.259-.486-.259-.1942 0-.3242.0646-.5509.2913l-1.9764 1.847c-1.0692-.7453-2.3974-1.1665-3.8233-1.1665-3.5316 0-6.4799 2.6244-6.4799 6.3503 0 3.7261 2.9483 6.3505 6.48 6.3505 3.5316 0 6.4801-2.6244 6.4801-6.3505 0-1.1663-.2916-2.2355-.7776-3.1425l2.009-1.9441c.2265-.1945.259-.3887.259-.5186 0-.1942-.0648-.2913-.2916-.5506zm8.1.7128c-3.5314 0-6.48 2.6244-6.48 6.3503 0 3.7261 2.9486 6.3505 6.48 6.3505 3.5316 0 6.4799-2.6244 6.4799-6.3505 0-3.7259-2.9483-6.3503-6.48-6.3503zm26.6004 5.1517c-1.6849-.6157-2.43-.7776-2.43-1.7174 0-.8422.6805-1.1663 1.62-1.1663.7451 0 1.4257.1945 2.2358.7454.162.097.2916.2267.486.2267.1294 0 .259-.0648.3887-.2593l.6157-.8747c.162-.2593.2268-.3564.2268-.486 0-.1945-.0974-.2916-.3239-.4535-1.0692-.7454-2.0738-1.1666-3.7584-1.1666-2.0738 0-4.115 1.2311-4.115 3.6288 0 1.8468.9397 2.6892 3.3049 3.5965 1.458.5508 2.6244.9395 2.6244 1.9441 0 .8424-.6803 1.2637-1.7497 1.2637-.9396 0-1.8468-.3567-2.8837-1.2962-.162-.1297-.2913-.2593-.486-.2593-.1943 0-.2914.0974-.4536.2918l-.745.8747c-.0974.1297-.1945.259-.1945.4212 0 .162.0971.2916.2916.486 1.134 1.134 2.6892 1.7495 4.4066 1.7495 2.8186 0 4.5358-1.5227 4.5358-3.7584 0-2.1384-1.4582-3.013-3.5965-3.7907zm20.6065-5.1517c-3.5316 0-6.5447 2.6244-6.5447 6.3503 0 3.7261 3.013 6.3505 6.5447 6.3505s6.5447-2.6244 6.5447-6.3505c0-3.7259-3.013-6.3503-6.5447-6.3503zm-28.6417.3241h-1.2959c-.5183 0-.713.1942-.713.7128v6.3503c0 2.009-1.1986 2.7866-2.6567 2.7866-1.4902 0-2.657-.7776-2.657-2.7866V3.402c0-.5186-.1942-.7128-.7125-.7128h-1.296c-.5185 0-.713.1942-.713.7128v6.3503c0 3.4343 2.3331 5.3136 5.3785 5.3136 3.0456 0 5.3787-1.8793 5.3787-5.3136V3.402c0-.5186-.1947-.7128-.713-.7128zM6.5447 12.539c-2.106 0-3.823-1.7174-3.823-3.8235 0-2.1058 1.717-3.823 3.823-3.823 2.1061 0 3.8233 1.7172 3.8233 3.823 0 2.106-1.7172 3.8235-3.8233 3.8235zm14.9366 0c-2.1061 0-3.8233-1.7174-3.8233-3.8235 0-2.1058 1.7172-3.823 3.8233-3.823 2.106 0 3.8232 1.7172 3.8232 3.823 0 2.106-1.7172 3.8235-3.8232 3.8235zm47.207 0c-2.1062 0-3.8233-1.7174-3.8233-3.8235 0-2.1058 1.7171-3.823 3.8232-3.823 2.1061 0 3.8232 1.7172 3.8232 3.823 0 2.106-1.7171 3.8235-3.8232 3.8235zm-56.2468 3.2398H11.081c-.5186 0-.6808.1945-.6808.648-.097 2.0412-1.6846 3.726-3.8555 3.726-2.106 0-3.7584-1.6848-3.8555-3.726 0-.4535-.1619-.648-.6802-.648H.648c-.486 0-.648.1945-.648.6157 0 3.402 2.8511 6.2854 6.5447 6.2854 3.6936 0 6.5448-2.8834 6.5448-6.2854 0-.4212-.162-.6157-.648-.6157z" fill="#ff0032" fill-rule="evenodd"/></svg>